<mxfile host="app.diagrams.net" modified="2024-06-23T17:05:20.112Z" agent="Mozilla/5.0 (Windows NT 10.0; Win64; x64) AppleWebKit/537.36 (KHTML, like Gecko) Chrome/125.0.0.0 Safari/537.36" version="24.6.2" etag="a4J26gHyBBS3VCQIKUmU" type="github">
  <diagram name="Page-1" id="35DUccZr5u6piiCfo9YA">
    <mxGraphModel>
      <root>
        <mxCell id="0" />
        <mxCell id="1" parent="0" />
      </root>
    </mxGraphModel>
  </diagram>
</mxfile>
